<?xml version="1.0" standalone="no"?>
<!DOCTYPE svg PUBLIC "-//W3C//DTD SVG 20010904//EN"
 "http://www.w3.org/TR/2001/REC-SVG-20010904/DTD/svg10.dtd">
<svg version="1.0" xmlns="http://www.w3.org/2000/svg"
 width="260.000000pt" height="260.000000pt" viewBox="0 0 260.000000 260.000000"
 preserveAspectRatio="xMidYMid meet">
<metadata>
Created by potrace 1.14, written by Peter Selinger 2001-2017
</metadata>
<g transform="translate(0.000000,260.000000) scale(0.100000,-0.100000)"
fill="#000000" stroke="none">
<path d="M0 1300 l0 -1300 1300 0 1300 0 0 1300 0 1300 -1300 0 -1300 0 0
-1300z m1285 930 c8 -12 -26 -69 -72 -124 -35 -42 -42 -66 -20 -66 18 0 44 30
49 55 4 25 55 52 71 36 7 -7 5 -12 -9 -17 -50 -16 -50 -16 -29 -24 19 -7 18
-8 -7 -20 -16 -7 -28 -17 -28 -21 0 -16 17 -17 45 -3 33 17 47 10 19 -10 -23
-17 -135 -19 -147 -2 -5 7 -25 -7 -57 -41 -27 -29 -54 -53 -59 -53 -19 0 -11
24 19 60 33 37 41 62 13 38 -23 -20 -92 -22 -99 -4 -3 8 6 37 20 65 21 41 23
51 11 51 -8 0 -15 5 -15 10 0 6 11 10 25 10 14 0 29 8 35 20 12 22 34 28 27 8
-2 -7 3 -18 12 -25 14 -11 12 -12 -11 -13 -20 0 -32 -10 -50 -42 -35 -61 -40
-78 -23 -78 8 0 27 19 42 43 15 23 28 44 30 46 2 2 5 2 8 -1 3 -3 -4 -22 -16
-42 -31 -53 -18 -53 30 -1 50 55 70 59 38 8 -13 -21 -30 -49 -37 -63 -12 -24
-11 -23 20 5 18 17 43 55 57 85 22 51 77 120 94 120 4 0 11 -5 14 -10z m-268
-16 c2 -6 -7 -14 -21 -16 -14 -3 -27 -1 -28 4 -4 11 -61 -11 -93 -35 -19 -15
-19 -16 10 -27 67 -26 80 -36 80 -59 0 -45 -124 -83 -154 -48 -15 19 -3 29 20
16 23 -12 91 4 109 26 14 16 16 15 -55 37 -69 22 -54 73 32 104 43 15 95 14
100 -2z m557 10 c9 -3 16 -13 16 -21 0 -19 -45 -63 -65 -63 -22 0 -18 14 7 25
13 6 24 18 26 28 3 15 0 16 -25 6 -58 -22 -123 -107 -109 -144 8 -22 28 -18
74 15 23 17 42 28 42 26 0 -20 -19 -40 -53 -57 -32 -17 -45 -19 -63 -10 -64
29 18 170 112 194 10 2 20 5 21 6 1 0 8 -2 17 -5z m188 -44 l22 -20 -27 0
c-22 0 -32 -10 -57 -52 -16 -29 -30 -56 -30 -60 0 -19 29 -4 65 33 39 39 39
40 13 34 -18 -5 -28 -3 -28 4 0 6 15 11 34 11 19 0 41 3 50 6 29 11 16 -11
-24 -40 -21 -16 -42 -36 -45 -44 -5 -14 5 -14 70 5 19 5 19 4 4 -12 -13 -13
-39 -18 -113 -21 -84 -3 -96 -2 -96 13 0 15 -1 15 -18 0 -21 -19 -38 -22 -47
-8 -6 11 35 101 47 101 11 0 10 -7 -8 -41 -20 -39 -8 -52 18 -19 65 82 83 91
46 22 -22 -39 -21 -61 2 -47 5 3 22 29 35 56 21 39 22 49 10 49 -8 0 -15 5
-15 10 0 6 9 10 20 10 10 0 25 7 32 15 17 18 15 18 40 -5z m-1021 -30 c21 0
21 -1 6 -18 -11 -12 -14 -26 -10 -42 6 -23 5 -24 -11 -11 -13 11 -22 12 -42 2
-23 -10 -25 -10 -19 10 4 13 1 27 -11 40 -16 18 -16 19 8 19 18 0 28 7 32 23
l7 22 9 -22 c6 -14 18 -23 31 -23z m1227 0 c24 0 25 -1 7 -20 -10 -11 -15 -28
-12 -39 4 -17 2 -18 -19 -9 -18 8 -27 8 -40 -3 -16 -13 -17 -11 -10 14 5 20 2
29 -9 33 -22 9 -18 24 6 24 13 0 23 8 27 22 l5 22 10 -22 c7 -14 19 -22 35
-22z m-518 -240 c15 -23 12 -66 -5 -80 -11 -9 -13 -16 -5 -24 5 -5 10 -23 10
-38 0 -15 5 -28 10 -28 6 0 10 9 10 20 0 11 5 20 10 20 11 0 13 -24 4 -58 -5
-18 -13 -22 -33 -20 -22 3 -28 10 -37 48 -9 38 -15 45 -37 48 -24 3 -27 0 -27
-29 0 -18 7 -41 17 -51 15 -17 14 -18 -35 -18 -50 0 -68 12 -37 24 12 4 15 25
15 96 0 53 -4 90 -10 90 -5 0 -10 6 -10 13 0 18 148 7 160 -13z m-415 8 c29
-13 42 -49 28 -81 -7 -14 -5 -29 4 -48 17 -35 3 -76 -32 -89 -33 -12 -135 -13
-135 -1 0 5 7 11 15 15 13 5 14 19 9 88 -4 52 -12 87 -20 94 -22 18 -17 23 29
27 23 2 50 4 59 5 9 1 29 -3 43 -10z m215 -23 c0 -41 -12 -45 -28 -10 -7 15
-20 25 -32 25 -17 0 -20 -7 -20 -40 0 -31 3 -38 15 -34 9 4 15 0 15 -10 0 -9
-7 -16 -15 -16 -21 0 -21 -78 0 -86 20 -8 45 13 45 37 0 11 5 19 10 19 6 0 10
-18 10 -40 l0 -40 -77 0 c-73 0 -75 1 -60 18 23 26 25 180 2 188 -35 14 -10
24 60 24 l75 0 0 -35z m498 22 c8 3 12 -7 12 -31 0 -42 -12 -46 -28 -10 -16
34 -65 31 -70 -4 -3 -18 4 -26 31 -37 19 -8 42 -22 51 -30 21 -21 21 -73 -1
-97 -18 -20 -73 -24 -91 -6 -8 8 -15 8 -27 -2 -13 -11 -15 -7 -15 29 0 46 11
53 28 17 13 -30 47 -42 68 -25 24 19 13 41 -36 69 -46 27 -57 50 -46 95 7 27
50 45 86 35 14 -4 31 -5 38 -3z m142 -14 c3 -3 -3 -9 -13 -14 -11 -7 -17 -22
-17 -44 0 -32 2 -35 30 -35 19 0 30 5 30 14 0 8 3 21 6 29 3 8 -2 21 -10 30
-21 20 -11 26 32 20 46 -7 48 -9 30 -27 -19 -18 -34 -164 -19 -179 6 -6 11
-15 11 -19 0 -9 -41 -11 -64 -2 -14 5 -14 8 -1 27 8 12 15 34 15 49 0 25 -3
28 -35 28 -34 0 -35 -1 -35 -40 0 -22 5 -40 10 -40 6 0 10 -4 10 -10 0 -12
-77 -13 -84 -1 -3 5 0 11 8 14 19 7 34 173 17 190 -6 6 -11 14 -11 18 0 7 81
0 90 -8z m-1073 -19 c13 -21 14 -32 6 -54 -8 -20 -7 -38 1 -64 11 -37 26 -48
26 -21 0 8 5 15 10 15 16 0 11 -56 -6 -71 -23 -19 -45 -1 -62 49 -12 36 -18
42 -41 42 -25 0 -27 -3 -23 -32 2 -18 11 -39 20 -45 20 -16 16 -20 -35 -28
-27 -4 -43 -2 -43 5 0 5 5 10 11 10 18 0 3 169 -17 191 -14 16 -14 18 8 22 13
2 47 5 75 6 46 1 55 -2 70 -25z m-243 -94 c21 -54 44 -101 50 -104 17 -7 -15
-26 -46 -26 -25 0 -26 2 -21 35 5 34 5 35 -26 35 -24 0 -31 -4 -31 -19 0 -11
7 -26 15 -35 23 -22 19 -26 -25 -26 -40 0 -40 0 -26 23 8 12 20 60 26 107 6
47 13 91 15 98 11 32 33 4 69 -88z m1573 74 c24 -24 25 -30 19 -86 -9 -76 -22
-104 -55 -118 -34 -14 -75 0 -91 30 -19 35 -2 149 26 177 30 30 69 29 101 -3z
m106 -1 c4 -3 2 -12 -5 -20 -8 -11 -7 -12 6 -7 15 6 17 0 14 -41 -2 -34 1 -49
11 -53 9 -3 11 0 6 8 -6 10 -2 12 14 7 14 -3 24 0 28 9 3 8 9 12 13 9 12 -7
21 25 14 48 -4 13 -2 17 5 13 6 -4 11 -25 11 -46 0 -46 -18 -60 -78 -60 -37 0
-40 -2 -45 -32 -3 -18 -1 -37 4 -43 14 -14 11 -25 -7 -25 -8 0 -13 4 -10 8 3
5 -8 6 -25 4 -30 -4 -41 11 -14 22 8 3 15 16 15 30 0 14 5 28 10 31 6 4 8 10
5 15 -3 5 -2 33 3 63 7 44 6 54 -5 50 -7 -3 -13 0 -13 6 0 12 32 15 43 4z
m-1867 -28 c9 -15 14 -36 11 -51 -2 -15 2 -38 11 -53 19 -34 9 -79 -21 -90
-12 -5 -47 -12 -77 -16 -50 -7 -53 -6 -41 9 7 9 11 26 8 38 -6 22 -6 22 9 4
13 -19 14 -19 12 7 -2 20 -7 26 -18 22 -12 -5 -13 -4 -2 6 15 16 29 3 34 -30
2 -13 12 -27 24 -32 17 -6 24 -2 34 17 19 35 0 74 -37 74 l-28 1 28 20 c27 21
36 52 17 64 -6 4 -8 10 -6 14 3 4 -5 7 -17 7 -12 -1 -26 -11 -32 -23 -10 -21
-12 -21 -44 -5 -29 14 -31 17 -15 23 12 4 20 1 22 -7 2 -8 8 -14 14 -14 5 0 8
6 5 14 -6 16 10 23 60 25 24 1 37 -5 49 -24z m1922 8 c2 -7 -4 -13 -13 -13 -9
0 -14 4 -11 9 4 5 0 12 -6 15 -7 3 -4 5 6 3 11 -1 21 -8 24 -14z m32 -14 c0
-11 -4 -17 -10 -14 -5 3 -10 13 -10 21 0 8 5 14 10 14 6 0 10 -9 10 -21z
m-2051 -51 c5 -14 5 -28 -1 -35 -15 -19 -27 -16 -25 6 0 11 5 17 9 15 16 -10
8 9 -9 22 -17 13 -17 13 0 14 10 0 21 -10 26 -22z m555 -187 c3 -4 -6 -6 -19
-3 -19 3 -27 -1 -34 -19 -6 -14 -10 -18 -10 -8 -2 30 48 54 63 30z m23 -43
c-2 -13 -4 -5 -4 17 -1 22 1 32 4 23 2 -10 2 -28 0 -40z m50 5 c-3 -10 -5 -2
-5 17 0 19 2 27 5 18 2 -10 2 -26 0 -35z m61 40 c-10 -2 -26 -2 -35 0 -10 3
-2 5 17 5 19 0 27 -2 18 -5z m166 -2 c3 -4 -6 -6 -19 -3 -15 2 -25 0 -25 -7 0
-6 11 -11 24 -11 29 0 43 -17 27 -33 -9 -9 -11 -8 -6 6 6 13 2 17 -18 17 -28
0 -42 14 -32 30 8 12 42 13 49 1z m56 -21 c10 0 21 8 23 18 3 9 5 -1 5 -23 0
-22 -2 -32 -5 -22 -2 9 -13 17 -23 17 -10 0 -21 -8 -23 -17 -3 -10 -5 0 -5 22
0 22 2 32 5 23 2 -10 13 -18 23 -18z m95 0 c20 -39 19 -53 -2 -16 l-16 30 -14
-27 c-20 -40 -25 -33 -6 8 9 19 18 35 20 35 1 0 9 -13 18 -30z m68 -5 c-13
-27 -19 -32 -30 -24 -7 6 -13 17 -12 23 0 7 2 6 6 -1 7 -20 19 -15 31 12 6 14
14 25 17 25 2 0 -3 -16 -12 -35z m65 28 c-31 -5 -38 -22 -10 -24 15 -1 15 -2
0 -6 -9 -2 -19 -12 -21 -21 -3 -9 -5 0 -6 21 -1 36 0 37 32 36 30 -2 30 -2 5
-6z m182 3 c0 -2 -11 -6 -25 -8 -14 -3 -25 -1 -25 3 0 5 11 9 25 9 14 0 25 -2
25 -4z m60 -61 c-1 -5 -8 3 -16 18 -8 15 -19 25 -24 22 -6 -3 -7 1 -4 10 6 13
10 11 25 -12 11 -15 19 -32 19 -38z m53 58 c-7 -2 -19 -2 -25 0 -7 3 -2 5 12
5 14 0 19 -2 13 -5z m90 0 c-7 -2 -21 -2 -30 0 -10 3 -4 5 12 5 17 0 24 -2 18
-5z m-1130 -20 c-46 -2 -120 -2 -165 0 -46 1 -9 3 82 3 91 0 128 -2 83 -3z
m1410 0 c-46 -2 -120 -2 -165 0 -46 1 -9 3 82 3 91 0 128 -2 83 -3z m-1043
-13 c0 -5 -4 -10 -10 -10 -5 0 -10 5 -10 10 0 6 5 10 10 10 6 0 10 -4 10 -10z
m460 0 c0 -5 -4 -10 -10 -10 -5 0 -10 5 -10 10 0 6 5 10 10 10 6 0 10 -4 10
-10z m74 2 c-6 -4 -14 -14 -17 -22 -4 -10 -6 -8 -6 8 -1 15 5 22 17 22 10 0
13 -3 6 -8z m213 2 c-3 -3 -12 -4 -19 -1 -8 3 -5 6 6 6 11 1 17 -2 13 -5z
m-1324 -11 c-7 -2 -19 -2 -25 0 -7 3 -2 5 12 5 14 0 19 -2 13 -5z m230 0 c-35
-2 -91 -2 -125 0 -35 2 -7 3 62 3 69 0 97 -1 63 -3z m908 -16 c-10 -9 -11 -8
-5 6 3 10 9 15 12 12 3 -3 0 -11 -7 -18z m-276 -112 c38 -37 31 -45 -35 -45
-35 0 -60 4 -60 10 0 14 46 60 60 60 6 0 22 -11 35 -25z m-32 -62 c-7 -2 -21
-2 -30 0 -10 3 -4 5 12 5 17 0 24 -2 18 -5z m37 -37 c0 -8 -12 -17 -27 -20
-16 -4 -36 -9 -46 -12 -16 -5 -17 -3 -8 14 6 12 23 23 38 25 16 2 31 5 36 6 4
0 7 -5 7 -13z m-219 -192 l175 -175 177 176 c106 106 181 174 188 169 7 -4
-57 -75 -167 -185 l-179 -179 118 -118 c65 -65 115 -121 112 -125 -3 -4 -2 -5
2 -2 11 8 73 -57 66 -69 -3 -6 -2 -8 2 -3 10 9 56 -33 49 -44 -9 -15 -26 -10
-20 7 3 9 2 12 -5 9 -6 -4 -85 68 -177 159 l-167 166 -176 -176 c-115 -115
-181 -174 -189 -169 -8 5 47 67 166 186 l179 179 -178 178 c-154 154 -185 192
-158 192 3 0 85 -79 182 -176z m219 132 c0 -14 -8 -18 -62 -30 -40 -9 -26 21
16 33 44 13 46 13 46 -3z m0 -61 c0 -15 -77 -42 -88 -30 -10 9 14 27 50 35 18
4 34 8 36 9 1 1 2 -6 2 -14z m-472 -63 c13 -20 13 -29 3 -57 -10 -27 -9 -40 3
-69 12 -29 59 -72 55 -49 -1 4 5 24 14 44 13 30 14 42 4 68 -10 26 -9 37 3 59
29 50 90 37 90 -19 0 -30 -30 -69 -54 -69 -7 0 -19 -15 -26 -32 -6 -18 -18
-45 -26 -60 -8 -14 -11 -28 -6 -30 11 -4 51 -147 57 -205 5 -40 -1 -30 -33 62
-21 61 -44 119 -50 130 -7 11 -21 46 -33 78 -11 32 -28 61 -37 64 -34 12 -52
36 -52 69 0 18 5 36 11 39 6 4 8 14 5 22 -9 22 53 -17 72 -45z m472 8 c0 -5
-15 -9 -32 -9 l-33 1 30 8 c17 4 31 8 33 9 1 0 2 -3 2 -9z m18 -38 c-2 -8 -15
-24 -30 -35 l-28 -21 -27 21 c-16 11 -30 28 -31 37 -3 15 5 17 58 15 48 -2 60
-6 58 -17z m381 2 c-10 -13 -10 -17 1 -24 9 -5 -19 -24 -88 -58 -56 -28 -103
-47 -105 -44 -2 4 -3 2 -1 -5 1 -6 -15 -23 -37 -37 -21 -15 -38 -23 -37 -19 2
5 -1 8 -7 8 -5 0 -9 -5 -9 -12 1 -6 -5 -14 -12 -17 -27 -10 -14 17 25 54 51
49 190 142 202 134 5 -3 9 0 9 6 0 11 34 28 59 29 11 1 11 -2 0 -15z m36 -3
c3 -5 1 -12 -5 -16 -5 -3 -10 1 -10 9 0 18 6 21 15 7z m-335 -151 c0 -15 -5
-12 -26 11 -19 22 -19 22 4 10 12 -6 22 -16 22 -21z m119 -77 c19 5 37 -16 32
-36 -1 -5 3 -6 9 -2 6 3 7 11 4 17 -4 5 5 2 20 -7 14 -9 23 -22 19 -28 -3 -5
-2 -7 3 -4 6 3 16 2 24 -3 12 -7 12 -11 0 -27 -14 -17 -14 -17 6 0 18 15 23
15 32 4 7 -8 9 -17 5 -20 -3 -4 4 -7 16 -7 12 0 20 -3 17 -8 -8 -13 -76 -5
-104 14 -54 35 -160 129 -155 137 3 5 16 -1 29 -14 14 -13 31 -20 43 -16z
m-671 -46 c-11 -29 -29 -74 -39 -102 l-19 -50 4 45 c3 25 15 76 26 113 17 56
24 66 35 57 12 -10 11 -20 -7 -63z m472 -83 c0 -24 -2 -25 -62 -22 -59 3 -63
5 -66 28 -3 25 -2 25 63 22 62 -4 65 -5 65 -28z m-113 -61 c1 -87 21 -275 30
-284 6 -6 19 -9 29 -7 24 4 31 44 40 201 6 111 17 145 30 93 3 -13 0 -43 -6
-67 -7 -24 -16 -86 -20 -137 -9 -98 -20 -125 -54 -120 -29 4 -46 44 -46 111 0
32 -7 87 -16 122 -16 61 -13 115 5 115 4 0 8 -12 8 -27z m89 -35 c-4 -35 -9
-102 -13 -151 -6 -84 -15 -109 -33 -91 -5 5 -11 36 -14 69 -2 33 -7 99 -11
148 l-8 87 43 0 43 0 -7 -62z"/>
<path d="M1237 2188 c-14 -18 -30 -44 -36 -58 -12 -24 -12 -24 11 2 27 32 62
88 54 88 -3 0 -16 -15 -29 -32z"/>
<path d="M1350 1870 c0 -29 2 -31 33 -28 27 2 32 7 32 28 0 21 -5 26 -32 28
-31 3 -33 1 -33 -28z"/>
<path d="M960 1865 c0 -32 3 -35 29 -35 17 0 31 6 35 16 9 24 -12 54 -39 54
-22 0 -25 -4 -25 -35z"/>
<path d="M963 1765 c6 -46 16 -55 45 -44 19 7 23 15 20 41 -3 29 -7 33 -36 36
-34 3 -34 3 -29 -33z"/>
<path d="M720 1845 c0 -30 3 -35 24 -35 30 0 50 23 41 50 -4 14 -15 20 -36 20
-27 0 -29 -3 -29 -35z"/>
<path d="M517 1806 c-11 -29 -8 -46 8 -46 16 0 18 14 6 44 -7 18 -8 18 -14 2z"/>
<path d="M2071 1833 c-26 -105 -15 -185 22 -155 16 13 27 53 32 117 4 54 -3
75 -25 75 -14 0 -22 -11 -29 -37z"/>
<path d="M797 1153 c-12 -12 -7 -60 8 -73 35 -29 77 11 57 54 -11 25 -49 36
-65 19z"/>
<path d="M967 1142 c-38 -42 -3 -97 41 -66 24 17 29 53 10 72 -17 17 -32 15
-51 -6z"/>
<path d="M900 935 c0 -8 4 -15 8 -15 5 0 9 7 9 15 0 8 -4 15 -9 15 -4 0 -8 -7
-8 -15z"/>
<path d="M1684 1075 c-4 -8 -10 -12 -15 -9 -5 3 -9 0 -9 -5 0 -16 20 -13 26 3
3 8 12 12 20 9 8 -3 14 -3 14 0 0 13 -31 15 -36 2z"/>
<path d="M1686 785 c-3 -8 -1 -15 4 -15 6 0 10 7 10 15 0 8 -2 15 -4 15 -2 0
-6 -7 -10 -15z"/>
</g>
</svg>
